<?xml version="1.0" standalone="no"?>
<!DOCTYPE svg PUBLIC "-//W3C//DTD SVG 20010904//EN"
 "http://www.w3.org/TR/2001/REC-SVG-20010904/DTD/svg10.dtd">
<svg version="1.0" xmlns="http://www.w3.org/2000/svg"
 width="300.000000pt" height="300.000000pt" viewBox="0 0 300.000000 300.000000"
 preserveAspectRatio="xMidYMid meet">
<metadata>
Created by potrace 1.14, written by Peter Selinger 2001-2017
</metadata>
<g transform="translate(0.000000,300.000000) scale(0.100000,-0.100000)"
fill="#000000" stroke="none">
<path d="M1615 2914 c-194 -23 -631 -130 -718 -176 -37 -20 -80 -56 -120 -101
-34 -38 -85 -87 -113 -108 -70 -51 -96 -107 -105 -224 -4 -49 -13 -121 -19
-160 -14 -84 -6 -211 21 -350 24 -124 24 -122 -3 -130 -36 -11 -77 -56 -88
-94 -16 -57 -12 -161 9 -244 24 -91 39 -122 102 -208 47 -64 81 -89 118 -89
14 0 20 -10 25 -42 13 -85 49 -214 73 -261 35 -71 94 -130 197 -199 50 -33 93
-62 95 -63 2 -2 -12 -19 -30 -38 -26 -25 -49 -37 -94 -46 -121 -25 -224 -61
-267 -94 -56 -43 -60 -63 -13 -83 20 -8 64 -28 99 -43 84 -39 269 -97 368
-116 135 -25 325 -35 467 -25 244 19 423 66 656 175 l80 37 -47 43 c-49 44
-143 81 -272 107 -45 9 -68 20 -96 46 l-36 35 90 61 c107 71 161 124 198 193
27 48 78 234 78 281 0 13 8 25 18 28 57 19 74 32 121 95 63 84 86 133 106 228
35 169 4 289 -84 316 -20 6 -22 11 -17 39 29 138 32 412 6 591 -23 158 -120
289 -267 362 -65 32 -78 43 -98 83 -47 92 -143 150 -279 169 -76 11 -101 11
-161 5z m221 -69 c121 -36 191 -114 201 -225 5 -52 3 -63 -13 -75 -19 -15 -19
-15 0 -8 13 4 17 3 12 -5 -4 -7 -15 -12 -25 -12 -15 0 -18 -7 -15 -41 2 -30
-3 -50 -18 -70 -12 -15 -25 -26 -30 -23 -4 3 -8 0 -8 -6 0 -6 -4 -8 -10 -5 -5
3 -10 2 -10 -4 0 -6 -8 -7 -17 -4 -16 6 -16 5 -4 -10 12 -15 12 -17 -4 -11
-14 6 -16 4 -10 -6 5 -9 4 -11 -4 -6 -6 4 -14 0 -17 -8 -3 -9 -15 -16 -26 -16
-10 0 -16 5 -13 10 4 6 11 8 16 5 5 -4 9 2 9 11 0 10 3 14 7 11 3 -4 12 2 20
13 8 11 21 20 29 20 8 0 13 4 10 9 -3 5 1 12 10 15 8 3 13 10 9 15 -3 6 4 15
15 21 11 6 18 15 15 20 -3 6 1 7 11 3 14 -5 15 -3 5 14 -6 12 -8 42 -4 71 3
28 3 62 -1 77 -7 28 -82 115 -98 115 -6 0 6 -16 25 -35 20 -20 41 -51 47 -71
16 -49 -3 -126 -40 -161 -16 -15 -26 -32 -23 -37 3 -6 0 -6 -7 1 -9 8 -19 9
-36 1 -23 -11 -30 -33 -9 -26 6 2 9 7 7 11 -1 5 2 6 7 3 5 -4 12 0 14 6 3 8 6
8 6 2 1 -6 -8 -19 -19 -29 -11 -10 -20 -14 -20 -10 0 5 -6 1 -13 -10 -9 -11
-19 -15 -27 -10 -10 6 -10 10 2 19 8 6 22 34 30 61 33 104 31 123 -4 49 -23
-50 -82 -114 -106 -114 -8 0 -12 -6 -9 -14 4 -9 1 -13 -7 -10 -8 3 -13 32 -15
87 -4 164 -83 238 -250 236 l-66 -1 71 -13 c85 -15 121 -33 162 -79 38 -43 56
-106 48 -164 -7 -49 -40 -92 -57 -75 -13 13 -39 6 -39 -9 0 -6 6 -5 15 2 12
10 15 9 15 -4 0 -10 5 -14 11 -10 7 4 10 1 7 -7 -6 -17 -48 -25 -48 -9 0 23
-92 109 -138 128 -59 26 -164 44 -222 40 -41 -3 -36 -5 50 -21 145 -28 246
-81 218 -114 -8 -10 -8 -17 0 -25 21 -21 -8 -36 -52 -26 -49 11 -58 17 -50 30
4 6 9 6 13 1 3 -5 17 -3 31 5 24 13 23 13 -15 7 -65 -9 -95 -6 -190 20 -91 25
-200 32 -240 15 -14 -6 -1 -9 45 -10 58 -1 169 -26 129 -29 -9 -1 -19 -8 -23
-16 -3 -10 -19 -15 -43 -15 -61 0 -235 -21 -267 -33 -65 -24 -120 -93 -110
-138 5 -20 4 -21 -6 -9 -8 10 -10 11 -8 2 2 -8 7 -13 12 -12 5 1 13 -4 18 -12
5 -8 6 -3 2 14 -4 20 -2 29 10 34 9 3 14 10 11 14 -3 4 2 10 10 14 17 6 21 -9
4 -19 -6 -4 -8 -13 -5 -21 3 -7 2 -16 -3 -18 -4 -3 -8 -23 -9 -45 -2 -44 -16
-86 -31 -96 -6 -3 -11 -11 -11 -16 0 -6 5 -7 11 -3 7 4 10 2 8 -5 -8 -22 -24
-11 -22 15 1 13 -2 22 -7 19 -4 -3 -10 -1 -12 5 -2 6 -9 0 -17 -12 -13 -21
-13 -22 2 -9 10 7 17 9 17 3 0 -5 -7 -15 -15 -22 -17 -14 -20 -30 -4 -30 5 0
7 5 3 11 -4 7 1 10 12 7 10 -2 20 -12 22 -22 3 -13 0 -16 -10 -10 -10 6 -11 5
-1 -7 10 -12 9 -20 -4 -38 -12 -18 -17 -20 -24 -10 -7 11 -9 10 -9 -3 0 -20
26 -24 33 -5 4 8 6 7 6 -4 1 -9 -10 -22 -24 -29 -19 -10 -22 -16 -14 -26 7 -9
7 -18 0 -31 -9 -16 -11 -14 -12 12 -1 17 -1 43 0 58 1 17 -3 26 -9 22 -6 -4
-8 9 -5 35 4 27 2 39 -5 35 -21 -13 -16 203 6 283 16 57 68 122 138 174 21 15
36 28 33 28 -16 0 -106 -45 -136 -67 l-34 -26 7 39 c17 86 68 136 206 202 89
42 209 124 191 130 -6 2 -54 -20 -107 -48 -83 -45 -94 -49 -80 -28 21 33 95
85 144 102 53 19 439 115 527 131 98 18 280 19 341 0z m348 -265 c67 -45 133
-125 157 -188 33 -87 53 -292 27 -276 -8 5 -9 2 -3 -12 5 -10 10 -45 11 -76 1
-31 6 -62 10 -69 5 -8 3 -9 -6 -4 -10 6 -12 3 -8 -13 4 -13 2 -20 -3 -16 -5 3
-7 33 -3 67 5 47 2 71 -10 97 -10 21 -14 25 -10 10 10 -39 14 -121 5 -115 -7
4 -3 -26 13 -95 5 -21 5 -22 -3 -5 -7 16 -9 11 -9 -23 0 -47 18 -70 19 -25 0
15 3 22 6 15 7 -18 -5 -62 -18 -62 -6 0 -7 5 -4 10 3 6 -4 10 -16 10 -19 0
-20 2 -8 18 12 15 12 16 -2 5 -23 -19 -32 -3 -12 20 17 19 17 19 -4 13 -17 -5
-23 -3 -23 8 0 8 -4 18 -10 21 -7 4 -7 -3 0 -20 7 -18 7 -32 0 -43 -9 -14 -10
-13 -4 7 4 15 2 21 -4 17 -6 -4 -10 1 -10 11 0 10 -4 37 -10 61 -11 48 4 58
32 20 16 -23 16 -23 6 5 -6 16 -6 26 -1 23 13 -8 20 -42 11 -56 -5 -8 -12 -5
-24 11 -9 13 -16 19 -16 13 0 -6 12 -24 27 -40 15 -16 24 -22 21 -14 -3 8 1
21 9 29 13 12 14 11 8 -9 -5 -15 -4 -20 3 -16 13 8 13 84 1 92 -5 3 -18 23
-28 45 -11 21 -15 37 -10 33 5 -3 9 0 9 5 0 6 -4 11 -8 11 -12 0 -34 51 -26
59 4 3 9 0 11 -6 7 -19 30 -16 37 4 6 14 9 15 15 4 6 -9 11 -10 15 -2 10 16
-60 79 -137 125 -37 21 -67 40 -67 42 0 1 26 8 58 14 74 14 113 31 57 25 -22
-3 -72 -7 -111 -9 -68 -3 -72 -2 -70 18 2 11 26 52 54 89 67 88 67 106 1 27
-49 -60 -51 -61 -65 -41 -13 18 -13 28 6 87 11 36 20 77 20 90 0 21 3 23 26
14 14 -6 45 -23 68 -40z m-154 -77 c0 -5 -5 -15 -11 -23 -9 -13 -10 -13 -6 2
3 9 1 19 -6 22 -7 2 -4 5 6 5 9 1 17 -2 17 -6z m25 -86 c0 -9 -4 -17 -9 -16
-5 0 -13 -6 -18 -15 -5 -9 -18 -16 -29 -16 -19 0 -19 1 3 24 16 16 27 20 36
13 7 -5 12 -5 12 0 0 5 -6 15 -12 22 -11 11 -10 13 2 9 8 -3 15 -12 15 -21z
m-275 -65 c-8 -3 -24 -12 -35 -21 -14 -11 -13 -8 4 11 13 15 29 24 34 21 7 -4
6 -8 -3 -11z m-90 4 c0 -3 -4 -8 -10 -11 -5 -3 -10 -1 -10 4 0 6 5 11 10 11 6
0 10 -2 10 -4z m-215 -16 c-3 -5 1 -10 10 -10 9 0 13 -5 10 -10 -5 -8 -11 -7
-21 1 -12 10 -11 29 2 29 3 0 2 -4 -1 -10z m585 6 c0 -2 -7 -7 -16 -10 -8 -3
-12 -2 -9 4 6 10 25 14 25 6z m-866 -15 c15 -6 16 -10 7 -16 -8 -4 -16 -3 -20
3 -4 7 -12 8 -21 2 -20 -13 -40 -12 -40 1 0 5 4 8 9 4 5 -3 12 -1 16 5 7 11
22 12 49 1z m311 -31 c-3 -5 -14 -8 -25 -7 -24 2 -18 12 9 14 12 1 19 -2 16
-7z m-15 -33 c25 0 146 3 270 8 316 11 370 -2 417 -96 17 -32 25 -76 34 -168
7 -78 20 -149 35 -194 13 -39 24 -87 24 -107 l0 -37 -84 19 c-73 17 -89 25
-129 63 -67 64 -139 78 -273 55 -105 -19 -134 -38 -134 -91 0 -20 3 -21 48
-16 l47 7 -60 -26 c-124 -54 -136 -56 -217 -50 -50 3 -92 13 -120 27 -23 12
-58 27 -77 34 -36 13 -36 13 17 8 49 -5 52 -4 52 16 0 12 -5 31 -10 41 -22 41
-223 74 -309 50 -26 -7 -62 -29 -90 -54 -39 -36 -57 -45 -124 -59 -43 -9 -82
-17 -87 -17 -18 0 -11 58 15 127 19 49 30 107 39 210 11 114 18 149 36 178 48
78 88 86 395 78 132 -3 260 -6 285 -6z m791 -101 c8 5 10 3 4 -6 -6 -10 -4
-12 8 -7 11 4 14 2 11 -8 -5 -12 -9 -12 -29 1 -13 8 -26 23 -29 32 -5 14 -4
14 8 -2 9 -10 20 -15 27 -10z m-23 -157 c-3 -8 -7 -3 -11 10 -4 17 -3 21 5 13
5 -5 8 -16 6 -23z m-1528 -103 c-5 -13 -6 -27 -3 -30 4 -3 1 -6 -5 -6 -6 0 -9
-8 -6 -17 5 -15 4 -15 -4 -3 -6 8 -9 17 -7 21 3 3 9 18 14 33 6 14 13 26 16
26 2 0 0 -11 -5 -24z m-35 -83 c-3 -16 -7 -39 -11 -53 -3 -14 -6 -30 -6 -37
-1 -7 -8 -15 -15 -17 -9 -4 -11 -1 -7 6 4 7 3 8 -4 4 -20 -12 -13 -29 8 -23
11 3 20 2 20 -3 0 -10 -31 -22 -38 -16 -8 9 -11 56 -3 56 4 0 7 15 6 33 -2 24
4 37 24 54 33 28 32 28 26 -4z m1637 -28 c3 3 13 -4 23 -15 14 -15 15 -23 6
-34 -6 -7 -13 -27 -14 -44 -2 -24 -5 -28 -18 -21 -9 4 -19 6 -21 4 -3 -3 -5 9
-5 27 -1 27 1 29 7 13 5 -11 9 -14 9 -7 1 7 6 10 11 7 6 -3 10 -1 10 5 0 6 -7
13 -15 16 -8 4 -15 10 -15 15 0 5 11 4 25 -1 16 -6 25 -6 25 0 0 10 -20 14
-51 12 -19 -2 -33 35 -15 41 6 3 16 -1 22 -9 6 -8 13 -11 16 -9z m-1234 -62
c-10 -2 -28 -2 -40 0 -13 2 -5 4 17 4 22 1 32 -1 23 -4z m840 0 c-10 -2 -28
-2 -40 0 -13 2 -5 4 17 4 22 1 32 -1 23 -4z m-755 -10 c-7 -2 -21 -2 -30 0
-10 3 -4 5 12 5 17 0 24 -2 18 -5z m654 1 c-3 -3 -12 -4 -19 -1 -8 3 -5 6 6 6
11 1 17 -2 13 -5z m-690 -74 c58 -7 153 -40 153 -53 0 -1 -64 -1 -142 1 -83 2
-158 -1 -180 -7 -40 -13 -101 -74 -96 -99 5 -26 85 -81 145 -98 78 -23 158
-14 236 25 34 16 63 28 65 26 8 -7 -28 -74 -57 -108 -45 -50 -123 -78 -221
-78 -89 0 -132 14 -177 59 -66 66 -102 201 -71 262 32 61 182 91 345 70z m946
-11 c21 -5 52 -23 70 -39 29 -26 32 -33 31 -88 -1 -110 -72 -213 -163 -241
-95 -28 -234 -4 -298 52 -32 28 -81 112 -71 122 2 2 32 -11 68 -28 56 -28 74
-32 145 -32 71 0 89 4 140 30 32 17 67 42 78 57 l20 27 -28 37 c-42 55 -74 64
-235 64 -87 0 -150 -4 -163 -11 -22 -12 -22 -12 -3 9 10 12 34 26 52 32 86 29
267 33 357 9z m-1485 -59 l10 -40 -25 20 c-38 30 -47 13 -11 -19 l32 -28 -18
-57 c-12 -36 -16 -69 -12 -91 11 -55 21 -48 21 15 1 67 20 102 40 73 7 -10 17
-65 24 -123 6 -58 14 -115 17 -127 9 -32 -13 -30 -50 5 l-29 27 21 -31 c12
-18 33 -35 47 -38 15 -4 25 -14 25 -24 0 -9 3 -27 6 -39 5 -18 2 -23 -14 -23
-23 0 -95 86 -131 157 -63 125 -69 352 -9 376 33 14 46 6 56 -33z m1832 30
c26 -14 40 -64 39 -144 -1 -130 -50 -259 -135 -352 -39 -42 -54 -43 -54 -4 0
28 29 70 49 70 5 0 17 12 27 27 l18 28 -33 -28 c-18 -15 -36 -27 -40 -27 -4 0
-2 33 5 73 7 39 13 97 14 128 0 30 6 63 13 73 12 17 14 17 27 1 9 -10 14 -40
15 -75 0 -64 9 -70 19 -15 5 23 1 55 -11 91 l-17 56 32 29 c40 35 25 48 -17
14 l-30 -26 15 45 c16 47 30 54 64 36z m-1122 -49 c8 -5 12 -17 10 -27 -3 -15
-6 -14 -21 9 -18 27 -13 34 11 18z m361 -23 c-12 -18 -24 -35 -26 -37 -2 -2
-3 5 -3 17 0 21 24 52 41 52 6 0 0 -15 -12 -32z m-647 -12 c-5 -45 12 -75 54
-92 66 -27 124 14 124 87 0 32 4 39 19 39 22 0 84 -66 79 -83 -6 -20 -105 -65
-157 -72 -75 -10 -154 10 -197 50 -31 29 -34 36 -24 55 12 22 61 49 90 50 12
0 15 -8 12 -34z m98 25 c0 -16 -19 -23 -40 -16 -30 10 -24 25 10 25 17 0 30
-4 30 -9z m436 -12 c6 -5 14 -37 17 -70 5 -62 61 -194 82 -194 6 0 21 -8 35
-17 71 -48 123 -62 225 -62 116 -1 173 19 239 82 36 35 96 141 96 170 0 7 5
10 11 6 8 -5 10 -32 6 -88 -7 -97 -69 -463 -91 -535 -38 -128 -100 -197 -273
-303 -134 -83 -131 -82 -125 -50 4 24 1 23 -27 -15 -52 -71 -94 -87 -248 -91
-130 -4 -134 -3 -196 26 -46 21 -70 40 -86 66 -27 43 -34 46 -25 9 l7 -27 -39
24 c-108 64 -241 157 -275 192 -46 48 -81 119 -103 213 -29 124 -76 433 -76
502 l0 66 35 -71 c56 -111 133 -166 253 -178 126 -14 256 29 326 106 48 53 66
96 70 165 3 59 16 81 49 88 30 7 98 -2 113 -14z m210 -18 c-1 -68 57 -111 121
-90 39 13 67 58 61 100 -3 18 0 29 7 29 29 0 75 -24 90 -46 16 -25 15 -26 -19
-59 -73 -69 -246 -69 -332 0 l-28 22 23 36 c22 36 34 45 62 46 13 1 16 -8 15
-38z m97 23 c-6 -17 -44 -15 -51 4 -2 8 7 12 27 12 23 0 29 -4 24 -16z m-538
-1209 c49 -17 267 -20 314 -4 32 11 84 6 110 -10 11 -7 6 -20 -28 -63 -62 -79
-167 -183 -206 -204 -33 -18 -33 -18 -69 10 -67 51 -225 225 -226 248 0 5 15
14 33 22 17 8 32 15 32 15 0 0 18 -6 40 -14z"/>
<path d="M1980 2441 c0 -7 -4 -10 -8 -7 -4 2 -14 1 -21 -3 -10 -7 -9 -9 2 -14
16 -6 44 19 33 30 -3 3 -6 1 -6 -6z"/>
<path d="M1936 2402 c-3 -5 1 -9 9 -9 8 0 12 4 9 9 -3 4 -7 8 -9 8 -2 0 -6 -4
-9 -8z"/>
<path d="M665 2079 c5 -14 4 -19 -4 -15 -7 4 -9 1 -5 -8 5 -14 8 -14 21 -1 21
21 24 19 12 -9 -8 -16 -17 -22 -28 -19 -21 8 -12 -1 18 -17 13 -6 21 -7 17 -2
-3 6 -2 13 4 17 14 9 13 48 -2 63 -20 20 -40 15 -33 -9z"/>
<path d="M620 1916 c0 -3 9 -10 20 -16 11 -6 20 -8 20 -6 0 3 -9 10 -20 16
-11 6 -20 8 -20 6z"/>
<path d="M2080 2360 c0 -5 5 -10 11 -10 5 0 7 5 4 10 -3 6 -8 10 -11 10 -2 0
-4 -4 -4 -10z"/>
<path d="M2318 2102 c-4 -12 -2 -22 4 -22 5 0 8 -6 5 -12 -2 -7 -9 -12 -15
-11 -6 2 -6 -8 1 -27 12 -32 27 -40 27 -15 0 8 -4 15 -10 15 -5 0 -10 5 -10
11 0 5 4 8 9 4 16 -9 19 9 6 45 -10 31 -12 32 -17 12z"/>
<path d="M2288 2103 c7 -3 16 -2 19 1 4 3 -2 6 -13 5 -11 0 -14 -3 -6 -6z"/>
<path d="M660 1795 c0 -8 4 -15 10 -15 5 0 7 7 4 15 -4 8 -8 15 -10 15 -2 0
-4 -7 -4 -15z"/>
<path d="M655 1760 c4 -6 11 -8 16 -5 14 9 11 15 -7 15 -8 0 -12 -5 -9 -10z"/>
<path d="M1231 1172 c-16 -30 -14 -97 4 -112 10 -8 31 -10 64 -6 45 6 52 4 90
-28 23 -19 51 -38 62 -41 35 -11 82 3 128 40 41 33 47 34 96 29 47 -6 54 -4
64 14 15 28 13 71 -3 101 -12 22 -13 19 -8 -29 6 -63 -12 -86 -55 -69 -40 15
-60 11 -97 -22 -66 -58 -116 -57 -184 2 -32 29 -39 30 -88 24 -47 -6 -54 -4
-64 15 -8 14 -8 31 -1 57 12 42 8 54 -8 25z"/>
<path d="M1143 909 c-28 -10 -30 -29 -3 -36 11 -3 31 -24 44 -48 37 -62 118
-130 184 -156 85 -32 190 -31 264 3 67 31 140 95 174 154 14 23 34 44 45 47
12 3 19 12 17 19 -6 17 -53 15 -153 -7 -109 -24 -340 -24 -450 0 -44 9 -84 20
-90 25 -5 4 -20 4 -32 -1z m197 -70 c118 -15 280 -9 419 18 l35 6 -25 -31
c-29 -37 -78 -50 -223 -58 -90 -6 -253 7 -289 22 -6 3 -23 19 -36 36 l-25 31
40 -8 c21 -4 68 -11 104 -16z"/>
</g>
</svg>
